:FULLY-SPECIFIED
:FORCE-ALL-JOINTS-BE-3DOF
:DEGREES
917
root 2.70887 16.085 32.4593 2.92807 10.161 3.51348
lfemur -9.30209 5.17551 -1.96581
ltibia 23.3625 -0 0
lfoot -8.48349 -32.868 -0.546869
ltoes 16.0208 -0 0
rfemur -19.8997 -3.34549 -9.23725
rtibia 50.4926 -0 0
rfoot 2.51679 -16.0661 -0.157393
rtoes -14.5228 0 0
lowerback -1.3492 -0.872628 -2.9961
upperback -0.952442 -1.10096 -5.51892
thorax -0.27139 -0.570466 -4.03523
lowerneck -7.00535 -4.12289 -0.957508
upperneck 4.22387 -5.77446 5.75615
head 2.7952 -2.6932 1.75964
lclavicle 1.75488e-16 1.19728e-14 5.97862e-31
lhumerus -53.2599 -37.3397 108.237
lradius 58.959 -0 0
lwrist 15.5961 0 0
lhand 39.5224 24.2069 0.275821
lfingers 7.12502 -0 0
lthumb 61.795 34.3849 -0.0752738
rclavicle 1.75488e-16 1.19728e-14 5.97862e-31
rhumerus -63.7239 37.5568 -94.9931
rradius 122.749 -0 0
rwrist -5.62457 0 0
rhand 26.0337 -4.16161 -3.18266
rfingers 7.12502 -0 0
rthumb 50.1805 -27.3131 -3.34379
918
root 2.62912 16.0593 32.502 3.13415 9.23471 3.71899
lfemur -8.00277 3.28556 -1.09477
ltibia 20.9084 -0 0
lfoot -7.99395 -35.4157 -0.43314
ltoes 16.1129 -0 0
rfemur -19.9971 -3.05951 -9.52682
rtibia 48.7155 -0 0
rfoot 2.42553 -14.8359 -0.104965
rtoes -19.7122 0 0
lowerback -1.65541 -0.812546 -2.98645
upperback -1.01999 -1.00636 -5.79352
thorax -0.168325 -0.522831 -4.32912
lowerneck -7.01604 -3.85113 -0.814913
upperneck 4.20143 -5.42586 5.80427
head 2.77367 -2.51624 1.76809
lclavicle -1.74863e-17 1.0543e-14 5.44649e-31
lhumerus -53.2282 -37.4466 107.873
lradius 58.8009 -0 0
lwrist 15.9207 0 0
lhand 40.3031 24.7732 0.25133
lfingers 7.12502 -0 0
lthumb 62.4565 34.2166 -0.0675309
rclavicle -1.74863e-17 1.0543e-14 5.44649e-31
rhumerus -64.4356 39.1084 -93.7666
rradius 122.525 -0 0
rwrist -5.49917 0 0
rhand 26.2481 -4.75461 -2.95935
rfingers 7.12502 -0 0
rthumb 50.3774 -27.7375 -3.12779
919
root 2.55055 16.0334 32.5426 3.3312 8.33151 3.91373
lfemur -6.76456 1.46782 -0.300596
ltibia 18.5338 -0 0
lfoot -7.57665 -37.7913 -0.312809
ltoes 16.0992 -0 0
rfemur -20.1265 -2.82529 -9.79378
rtibia 47.0368 -0 0
rfoot 2.2988 -13.6143 -0.0582187
rtoes -24.7003 0 0
lowerback -1.94385 -0.755454 -2.97106
upperback -1.08404 -0.916993 -6.05668
thorax -0.0713617 -0.477278 -4.61403
lowerneck -7.02547 -3.5834 -0.668189
upperneck 4.17446 -5.08227 5.84499
head 2.75066 -2.34214 1.77301
lclavicle -2.38267e-16 9.07339e-15 4.84323e-31
lhumerus -53.2028 -37.5635 107.529
lradius 58.6443 -0 0
lwrist 16.25 0 0
lhand 41.043 25.3084 0.220741
lfingers 7.12502 -0 0
lthumb 63.0839 34.0577 -0.0581608
rclavicle -2.38267e-16 9.07339e-15 4.84323e-31
rhumerus -64.7902 40.6095 -92.2459
rradius 122.106 -0 0
rwrist -5.40749 0 0
rhand 26.3044 -5.41149 -2.67567
rfingers 7.12502 -0 0
rthumb 50.4273 -28.2481 -2.84551
920
root 2.47371 16.0075 32.581 3.52041 7.45933 4.09596
lfemur -5.59535 -0.249081 0.415425
ltibia 16.2668 -0 0
lfoot -7.24356 -39.9567 -0.195585
ltoes 15.968 -0 0
rfemur -20.2797 -2.64263 -10.0396
rtibia 45.4736 -0 0
rfoot 2.12759 -12.4231 -0.0190859
rtoes -29.4158 0 0
lowerback -2.21335 -0.701363 -2.94829
upperback -1.1449 -0.833091 -6.30521
thorax 0.0183535 -0.434005 -4.88775
lowerneck -7.0333 -3.3228 -0.518557
upperneck 4.14226 -4.74761 5.87703
head 2.7261 -2.17295 1.77402
lclavicle -4.81573e-16 7.57447e-15 4.17793e-31
lhumerus -53.1896 -37.6897 107.215
lradius 58.4904 -0 0
lwrist 16.5809 0 0
lhand 41.7331 25.8062 0.185467
lfingers 7.12502 -0 0
lthumb 63.6697 33.9114 -0.0476658
rclavicle -4.81573e-16 7.57447e-15 4.17793e-31
rhumerus -64.7224 42.0431 -90.3882
rradius 121.478 -0 0
rwrist -5.35117 0 0
rhand 26.1936 -6.12803 -2.33597
rfingers 7.12502 -0 0
rthumb 50.3216 -28.8435 -2.50014
921
root 2.39917 15.9816 32.6171 3.70307 6.62606 4.26396
lfemur -4.50286 -1.83633 1.05313
ltibia 14.1354 -0 0
lfoot -7.006 -41.8741 -0.0917048
ltoes 15.707 -0 0
rfemur -20.4481 -2.51127 -10.2657
rtibia 44.0425 -0 0
rfoot 1.90282 -11.2841 0.0106879
rtoes -33.787 0 0
lowerback -2.46274 -0.650271 -2.9165
upperback -1.20285 -0.754888 -6.53596
thorax 0.0996776 -0.393221 -5.14806
lowerneck -7.03921 -3.07243 -0.367237
upperneck 4.10412 -4.42577 5.8991
head 2.69987 -2.01069 1.77068
lclavicle -7.42125e-16 6.05648e-15 3.45645e-31
lhumerus -53.1948 -37.8245 106.941
lradius 58.3403 -0 0
lwrist 16.9103 0 0
lhand 42.3641 26.2606 0.147141
lfingers 7.12502 -0 0
lthumb 64.2062 33.7805 -0.0366249
rclavicle -7.42125e-16 6.05648e-15 3.45645e-31
rhumerus -64.1649 43.385 -88.148
rradius 120.627 -0 0
rwrist -5.33184 0 0
rhand 25.9069 -6.9006 -1.94536
rfingers 7.12502 -0 0
rthumb 50.052 -29.5232 -2.0957
922
root 2.32748 15.9557 32.6505 3.8805 5.83962 4.41599
lfemur -3.49491 -3.26502 1.61319
ltibia 12.1677 -0 0
lfoot -6.87476 -43.5054 -0.0113755
ltoes 15.3043 -0 0
rfemur -20.6237 -2.43084 -10.4732
rtibia 42.7606 -0 0
rfoot 1.6153 -10.2193 0.029423
rtoes -37.7427 0 0
lowerback -2.69082 -0.602177 -2.87406
upperback -1.25815 -0.682613 -6.74576
thorax 0.171471 -0.35515 -5.39276
lowerneck -7.0429 -2.83537 -0.215442
upperneck 4.05928 -4.12064 5.9099
head 2.6719 -1.85739 1.76261
lclavicle -1.01464e-15 4.52974e-15 2.68115e-31
lhumerus -53.2245 -37.9672 106.72
lradius 58.1953 -0 0
lwrist 17.2354 0 0
lhand 42.9271 26.6653 0.107554
lfingers 7.12502 -0 0
lthumb 64.6858 33.6683 -0.0256732
rclavicle -1.01464e-15 4.52974e-15 2.68115e-31
rhumerus -63.0511 44.6017 -85.4799
rradius 119.538 -0 0
rwrist -5.35111 0 0
rhand 25.4354 -7.72612 -1.50964
rfingers 7.12502 -0 0
rthumb 49.6097 -30.2873 -1.63708
923
root 2.2592 15.9301 32.6813 4.05409 5.10792 4.55033
lfemur -2.5797 -4.50623 2.09686
ltibia 10.3917 -0 0
lfoot -6.86044 -44.8127 0.03584
ltoes 14.7481 -0 0
rfemur -20.7981 -2.40094 -10.6635
rtibia 41.6446 -0 0
rfoot 1.25578 -9.25032 0.0353464
rtoes -41.2111 0 0
lowerback -2.89642 -0.557077 -2.81933
upperback -1.31108 -0.616498 -6.93143
thorax 0.232597 -0.320022 -5.61962
lowerneck -7.0441 -2.61472 -0.0643841
upperneck 4.00702 -3.83615 5.90814
head 2.64209 -1.7151 1.7494
lclavicle -1.29384e-15 3.00454e-15 1.8507e-31
lhumerus -53.2852 -38.1171 106.56
lradius 58.0563 -0 0
lwrist 17.5529 0 0
lhand 43.4129 27.0142 0.0685939
lfingers 7.12502 -0 0
lthumb 65.1009 33.5778 -0.0154794
rclavicle -1.29384e-15 3.00454e-15 1.8507e-31
rhumerus -61.3198 45.6479 -82.3438
rradius 118.199 -0 0
rwrist -5.41061 0 0
rhand 24.7704 -8.60202 -1.03528
rfingers 7.12502 -0 0
rthumb 48.9857 -31.1363 -1.13015
924
root 2.1949 15.9047 32.709 4.22527 4.43888 4.66525
lfemur -1.76598 -5.53117 2.50569
ltibia 8.83535 -0 0
lfoot -6.97368 -45.7579 0.0416954
ltoes 14.0262 -0 0
rfemur -20.9633 -2.42111 -10.8378
rtibia 40.7115 -0 0
rfoot 0.81503 -8.39902 0.0263978
rtoes -44.1209 0 0
lowerback -3.07837 -0.514971 -2.75069
upperback -1.3619 -0.556772 -7.08982
thorax 0.281921 -0.288072 -5.82643
lowerneck -7.04259 -2.41359 0.0847272
upperneck 3.94658 -3.57618 5.89255
head 2.61034 -1.58584 1.73064
lclavicle -1.57445e-15 1.4912e-15 9.59969e-32
lhumerus -53.3832 -38.2734 106.475
lradius 57.9247 -0 0
lwrist 17.8599 0 0
lhand 43.8125 27.3012 0.0321408
lfingers 7.12502 -0 0
lthumb 65.4439 33.512 -0.00670987
rclavicle -1.57445e-15 1.4912e-15 9.59969e-32
rhumerus -58.9233 46.4651 -78.7127
rradius 116.593 -0 0
rwrist -5.51197 0 0
rhand 23.903 -9.5262 -0.529452
rfingers 7.12502 -0 0
rthumb 48.1712 -32.0713 -0.581796
925
root 2.13513 15.8796 32.7337 4.39544 3.84042 364.759
lfemur -1.06315 -6.31122 2.8412
ltibia 7.52681 0 0
lfoot -7.2256 -46.3024 0
ltoes 13.1266 0 0
rfemur -21.1112 -2.49084 -10.9972
rtibia 39.9781 0 0
rfoot 0.283837 -7.68699 0
rtoes -46.4005 0 0
lowerback -3.23548 -0.47587 -2.6665
upperback -1.41089 -0.503662 -7.21775
thorax 0.318308 -0.259537 -6.011
lowerneck -7.03814 -2.23507 0.230682
upperneck 3.87724 -3.34467 5.86185
head 2.57656 -1.47165 1.70594
lclavicle -1.85118e-15 0 0
lhumerus -53.5254 -38.4352 106.474
lradius 57.8015 0 0
lwrist 18.1533 0 0
lhand 44.117 27.5203 0
lfingers 7.12502 0 0
lthumb 65.7072 33.474 0
rclavicle -1.85118e-15 0 0
rhumerus -55.8381 46.9807 -74.5842
rradius 114.708 0 0
rwrist -5.65682 0 0
rhand 22.8247 -10.4969 0
rfingers 7.12502 0 0
rthumb 47.1569 -753.094 0
926
root 2.0781 15.8542 32.755 4.56419 3.29934 4.83559
lfemur -0.440736 -6.86515 3.1109
ltibia 6.42184 -0 0
lfoot -7.63186 -46.435 -0.0917396
ltoes 11.9858 -0 0
rfemur -21.2837 -2.64848 -11.1258
rtibia 39.4519 -0 0
rfoot -0.350572 -7.05061 -0.0396168
rtoes -48.1428 0 0
lowerback -3.36222 -0.440848 -2.56462
upperback -1.45577 -0.458506 -7.31883
thorax 0.34139 -0.235336 -6.17778
lowerneck -7.03146 -2.07107 0.381385
upperneck 3.79657 -3.13127 5.81319
head 2.53949 -1.36738 1.6735
lclavicle -2.20763e-15 -1.64935e-15 -1.00639e-31
lhumerus -53.7058 -38.6156 106.544
lradius 57.683 -0 0
lwrist 18.4513 0 0
lhand 44.3307 27.67 -0.0265323
lfingers 7.12502 -0 0
lthumb 65.8945 33.458 0.00498889
rclavicle -2.20763e-15 -1.64935e-15 -1.00639e-31
rhumerus -51.9052 47.0341 -69.7561
rradius 112.396 -0 0
rwrist -5.87285 0 0
rhand 21.4016 -11.6049 0.600722
rfingers 7.12502 -0 0
rthumb 45.8157 -34.305 0.667174
